<?xml version="1.0" standalone="no"?>
<!DOCTYPE svg PUBLIC "-//W3C//DTD SVG 20010904//EN"
 "http://www.w3.org/TR/2001/REC-SVG-20010904/DTD/svg10.dtd">
<svg version="1.0" xmlns="http://www.w3.org/2000/svg"
 width="1239.000000pt" height="1239.000000pt" viewBox="0 0 1239.000000 1239.000000"
 preserveAspectRatio="xMidYMid meet">
<metadata>
Created by potrace 1.11, written by Peter Selinger 2001-2013
</metadata>
<g transform="translate(0.000000,1239.000000) scale(0.100000,-0.100000)"
fill="#000000" stroke="none">
<path d="M10797 12383 c-2 -1 -245 -10 -522 -18 -172 -5 -654 -16 -880 -20
-538 -9 -1027 -17 -1077 -19 -31 0 -63 -7 -70 -14 -6 -6 -29 -12 -50 -12 -25
0 -45 -7 -61 -22 -12 -13 -56 -52 -97 -88 -40 -36 -78 -69 -85 -75 -6 -5 -49
-44 -95 -85 -47 -41 -90 -79 -96 -85 -6 -5 -35 -31 -65 -56 -30 -26 -66 -57
-80 -70 -14 -13 -59 -53 -99 -89 -40 -36 -84 -74 -96 -85 -12 -11 -46 -40 -74
-65 -29 -25 -57 -50 -64 -56 -21 -19 -122 -109 -191 -169 -37 -33 -80 -71 -94
-85 -15 -14 -42 -38 -61 -54 -19 -15 -58 -49 -85 -75 -28 -25 -77 -68 -109
-96 -32 -27 -68 -59 -80 -70 -12 -11 -55 -49 -96 -85 -41 -36 -81 -72 -90 -80
-9 -8 -47 -42 -85 -75 -37 -33 -73 -64 -79 -70 -25 -23 -174 -154 -205 -181
-19 -16 -49 -42 -66 -59 -18 -16 -59 -52 -91 -80 -32 -27 -73 -65 -92 -82 -18
-18 -45 -42 -59 -53 -14 -11 -57 -48 -96 -82 -38 -35 -79 -71 -91 -81 -12 -10
-34 -31 -51 -46 -36 -32 -136 -121 -185 -165 -51 -45 -199 -176 -238 -211 -49
-43 -72 -63 -142 -125 -35 -30 -70 -62 -79 -70 -10 -8 -53 -46 -97 -84 -43
-39 -88 -78 -99 -88 -139 -127 -162 -145 -220 -172 -57 -27 -138 -56 -175 -62
-14 -3 -31 -7 -39 -10 -14 -5 -84 -13 -150 -18 -19 -1 -51 5 -70 15 -93 44
-166 62 -275 65 -60 1 -118 -2 -128 -7 -14 -8 -25 -5 -44 10 -37 29 -96 36
-138 16 -31 -15 -86 -72 -86 -90 0 -3 -10 -27 -21 -53 -12 -26 -35 -103 -51
-172 -43 -180 -74 -272 -130 -385 -48 -97 -96 -155 -187 -225 -234 -181 -184
-162 -456 -166 -225 -3 -303 -7 -415 -19 -96 -10 -142 -14 -244 -20 -103 -6
-169 -12 -221 -21 -16 -3 -88 -6 -160 -8 -129 -3 -197 -15 -245 -42 -14 -8
-59 -20 -100 -27 -57 -10 -74 -16 -71 -27 52 -211 65 -341 66 -670 0 -154 0
-155 -29 -200 -56 -88 -140 -181 -231 -256 -32 -26 -54 -34 -108 -42 -37 -5
-67 -5 -67 -1 0 9 -188 4 -230 -5 -14 -3 -36 -8 -49 -11 -45 -9 -116 -39 -167
-71 -144 -90 -234 -251 -250 -446 -3 -35 -10 -85 -16 -113 -6 -27 -12 -113
-13 -190 -2 -121 0 -145 16 -177 19 -37 83 -89 127 -102 12 -4 22 -12 22 -17
0 -5 8 -9 18 -9 9 0 28 -9 42 -20 14 -11 30 -20 36 -20 6 0 40 -15 75 -33 35
-18 103 -50 152 -70 48 -21 118 -51 155 -68 37 -16 81 -36 97 -43 61 -27 90
-39 100 -42 6 -1 70 -27 143 -58 164 -70 245 -101 255 -98 4 1 7 -2 7 -6 0 -5
19 -15 43 -22 23 -8 48 -18 54 -23 7 -5 13 -7 13 -3 0 4 17 -2 37 -12 21 -11
62 -27 92 -37 29 -9 65 -24 80 -31 14 -8 30 -14 34 -14 5 0 23 -6 40 -14 18
-8 91 -38 164 -66 124 -48 135 -55 188 -111 90 -98 145 -232 162 -399 9 -83 9
-307 -1 -480 -8 -150 -9 -406 -1 -460 9 -69 16 -106 25 -140 15 -61 20 -128
25 -404 3 -148 7 -272 9 -275 2 -3 7 -33 11 -66 6 -55 18 -110 44 -193 13 -45
66 -128 99 -158 62 -56 179 -95 267 -89 28 1 92 17 143 35 84 30 92 35 93 59
0 14 2 33 4 41 5 28 25 185 30 245 3 33 8 78 10 100 10 92 17 184 30 410 5 82
13 274 20 465 19 524 38 835 51 849 8 8 37 11 110 12 103 2 300 -51 464 -123
14 -7 27 -12 30 -13 26 -8 64 -25 193 -84 37 -17 70 -31 72 -31 2 0 38 -16 79
-35 42 -19 79 -35 82 -35 3 0 26 -9 52 -21 26 -12 61 -27 77 -34 17 -7 55 -24
85 -38 31 -14 62 -27 70 -29 8 -2 17 -5 20 -8 3 -3 17 -11 31 -17 26 -11 27
-14 29 -110 1 -54 3 -111 5 -127 2 -17 6 -116 9 -220 4 -105 8 -249 11 -321 3
-71 7 -215 10 -320 2 -104 7 -302 11 -440 12 -449 12 -479 -1 -505 -16 -31
-36 -49 -173 -155 -7 -5 -27 -22 -43 -38 -27 -24 -49 -34 -85 -36 -12 -1 -25
-76 -48 -271 l-6 -45 108 -55 c59 -30 110 -54 115 -52 4 1 7 -2 7 -7 0 -4 29
-21 65 -37 36 -16 65 -32 65 -36 0 -5 9 -8 19 -8 11 0 21 -3 23 -7 2 -5 107
-60 233 -123 127 -63 233 -119 237 -125 4 -5 8 -6 8 -2 0 13 23 -14 40 -46 18
-36 55 -55 100 -50 19 2 40 3 45 3 6 0 51 -3 100 -6 61 -3 106 0 140 9 28 8
56 16 64 18 39 11 104 78 133 138 19 39 23 64 25 161 3 157 -35 307 -105 412
-24 37 -24 37 -7 90 10 29 21 58 25 63 4 6 11 21 15 35 4 14 13 39 21 55 7 17
27 66 44 110 17 44 37 94 45 110 7 17 25 59 40 95 15 36 33 79 40 95 8 17 38
89 68 160 30 72 64 153 77 180 37 82 60 136 191 437 111 257 125 285 136 265
16 -32 41 -159 48 -252 3 -44 8 -96 10 -115 4 -33 7 -109 20 -495 11 -304 15
-411 20 -455 3 -25 7 -68 10 -97 2 -28 9 -71 14 -96 6 -24 13 -86 16 -138 4
-52 8 -103 9 -114 1 -11 -1 -30 -6 -42 -4 -13 -4 -23 0 -23 4 0 6 -33 4 -72
-7 -132 -7 -612 0 -673 24 -212 91 -375 198 -480 38 -38 55 -47 105 -56 71
-13 220 -6 320 16 39 9 82 18 97 22 45 9 47 17 64 188 2 28 7 68 10 89 3 21 7
62 9 90 2 28 7 80 10 116 3 36 8 99 10 140 3 41 8 95 10 120 2 25 7 95 10 155
3 61 8 146 10 190 7 130 19 404 30 690 3 72 7 168 10 215 3 47 7 159 11 250 3
91 7 185 9 210 2 25 6 104 10 175 3 72 8 141 10 155 2 14 7 70 10 125 19 317
62 441 205 598 62 67 197 177 219 177 6 0 11 4 11 9 0 5 8 12 18 15 21 8 55
28 76 45 9 7 16 10 16 7 0 -4 21 4 48 18 39 21 111 54 132 61 3 1 34 10 70 22
36 11 89 26 117 33 29 6 51 16 48 20 -4 7 29 17 85 26 8 2 40 10 70 19 30 9
67 18 83 18 15 1 27 4 27 7 0 3 10 7 23 8 25 3 62 10 62 12 0 1 9 3 20 4 56 8
112 17 125 21 38 10 98 17 130 16 225 -9 429 6 488 38 9 5 22 9 27 10 17 2 80
23 90 31 16 12 78 29 113 32 29 2 32 5 32 35 0 19 5 33 13 34 6 0 28 20 47 45
19 24 40 50 45 57 45 56 85 139 124 258 18 56 25 66 41 62 11 -3 25 -11 31
-19 6 -8 17 -14 24 -14 15 0 69 -61 101 -117 61 -103 87 -215 119 -523 21
-202 25 -225 45 -310 16 -63 18 -106 15 -270 -1 -107 -5 -204 -8 -215 -17 -71
-26 -390 -14 -496 24 -213 150 -329 358 -329 59 0 212 23 265 41 17 5 41 12
54 14 12 2 24 6 25 7 4 4 15 91 20 168 6 75 13 157 19 232 14 151 26 317 41
543 3 44 7 112 10 150 3 39 7 104 10 145 2 41 7 120 10 175 4 55 8 132 10 170
8 153 15 293 20 360 2 39 7 117 10 175 3 58 8 130 10 160 4 66 15 267 19 370
7 164 85 256 301 351 41 18 206 67 250 74 11 2 20 4 20 5 0 2 29 9 55 14 8 2
22 6 30 9 20 7 72 21 85 22 6 0 16 4 23 8 6 5 12 6 12 3 0 -3 16 2 35 10 19 8
35 12 35 10 0 -14 116 45 125 63 5 11 13 21 18 21 4 0 16 15 27 33 11 17 20
26 20 20 0 -23 77 -16 93 8 17 24 5 76 -24 108 -18 19 -18 22 10 89 16 38 36
84 44 103 8 19 18 44 22 56 4 13 11 20 20 17 10 -4 12 0 8 16 -4 13 8 42 33
83 41 66 51 124 34 190 -5 18 -11 320 -13 672 -2 352 -7 651 -10 664 -4 13 -7
41 -9 62 -2 36 -5 40 -52 60 -28 12 -53 25 -56 29 -3 4 -39 18 -80 30 -41 12
-81 27 -87 32 -7 6 -13 7 -13 4 0 -4 -10 -1 -22 6 -13 7 -25 13 -28 13 -3 1
-22 5 -42 9 -21 5 -38 12 -38 18 0 5 -4 7 -10 3 -5 -3 -26 2 -47 11 -21 8 -49
18 -63 20 -14 3 -36 9 -50 14 -30 11 -250 66 -299 75 -19 3 -37 8 -40 10 -4 2
-27 6 -51 10 -25 3 -53 8 -63 11 -11 4 -29 7 -40 9 -19 3 -82 14 -182 31 -16
3 -43 7 -60 9 -72 9 -122 16 -145 21 -23 4 -99 13 -175 19 -16 2 -30 4 -30 5
0 1 -18 4 -40 5 -22 2 -67 6 -100 10 -33 3 -94 8 -135 10 -41 3 -102 7 -135
10 -33 3 -91 8 -130 10 -38 2 -106 6 -150 9 -212 14 -309 18 -407 20 -60 0
-108 4 -108 8 0 4 -11 3 -24 -2 -13 -5 -26 -7 -27 -5 -2 2 -20 6 -39 9 -19 3
-53 11 -75 19 -51 17 -151 13 -184 -7 -8 -5 -28 -11 -45 -13 -107 -14 -106
-14 -130 55 -14 39 -14 42 4 52 11 6 20 9 20 6 0 -2 30 4 68 15 37 11 81 22
97 24 17 3 54 11 84 19 30 9 58 13 62 10 4 -2 10 0 13 5 3 4 25 12 48 16 50 9
46 8 123 29 33 9 67 19 75 21 8 2 30 8 48 14 17 5 32 7 32 4 0 -3 6 -1 13 4
13 11 67 27 80 25 4 -1 7 3 7 9 0 5 3 8 8 5 11 -7 414 133 526 182 25 12 46
19 46 16 0 -3 10 2 22 10 12 9 29 16 36 16 7 0 20 7 28 15 9 8 24 15 34 15 10
0 22 5 25 10 3 6 13 10 22 10 23 0 545 260 563 281 3 3 28 21 55 40 28 18 52
36 55 39 3 3 64 43 135 89 235 152 289 189 341 233 28 24 71 59 95 78 61 49
220 207 256 255 46 60 89 143 108 205 10 30 26 74 36 97 65 146 36 235 -101
304 -73 37 -260 110 -290 114 -8 1 -25 7 -38 14 -12 6 -27 9 -32 6 -5 -3 -11
-1 -15 5 -4 6 -10 8 -15 5 -5 -3 -11 -1 -15 5 -4 6 -10 8 -15 5 -5 -3 -11 -1
-15 5 -4 6 -10 8 -15 5 -5 -3 -11 -1 -15 5 -3 5 -19 10 -35 10 -16 0 -32 5
-35 10 -3 6 -19 10 -36 10 -16 0 -29 5 -29 11 0 5 -4 8 -9 5 -4 -3 -23 -1 -42
5 -19 6 -47 14 -64 19 -101 28 -146 40 -167 44 -12 3 -50 13 -83 22 -33 9 -67
18 -75 20 -8 2 -42 11 -75 20 -33 9 -67 17 -75 19 -8 2 -27 8 -41 13 -15 6
-30 8 -33 5 -3 -4 -6 -2 -6 4 0 5 -6 10 -12 10 -27 1 -67 12 -90 24 -12 7 -24
12 -26 11 -1 -2 -12 0 -25 3 -13 4 -30 8 -38 9 -15 3 -40 12 -79 28 -14 5 -36
12 -49 15 -14 2 -29 7 -35 11 -6 4 -14 7 -18 8 -5 1 -10 3 -13 4 -3 1 -8 3
-12 4 -18 3 -152 58 -243 99 -65 30 -182 111 -173 121 9 9 53 8 53 -2 0 -4 14
-13 32 -20 30 -11 34 -10 78 31 78 72 109 97 119 97 5 0 11 3 13 8 6 14 95 78
271 194 59 39 107 75 107 80 0 4 4 8 10 8 11 0 89 54 160 110 24 19 56 44 70
55 88 70 240 243 265 302 1 2 12 4 26 6 13 2 23 8 21 13 -1 5 -5 17 -8 27 -3
10 -1 39 5 65 20 83 20 112 2 113 -24 3 -352 4 -354 2z m293 -147 c0 -2 -7 -7
-16 -10 -8 -3 -12 -2 -9 4 6 10 25 14 25 6z m-1197 -1011 c32 -28 35 -40 7
-25 -11 6 -20 7 -20 3 0 -4 -5 -2 -12 5 -7 7 -21 12 -32 12 -21 1 -21 1 -2 15
25 19 26 19 59 -10z m-1155 -2860 l3 -30 -24 25 c-26 27 -26 43 1 38 11 -2 18
-15 20 -33z m-3083 -4696 c8 -15 15 -43 15 -61 0 -81 -66 -261 -157 -431 -31
-56 -66 -121 -79 -145 -21 -40 -24 -42 -34 -22 -13 24 -2 584 11 593 71 50
189 105 211 99 10 -2 25 -17 33 -33z m406 -86 c24 -9 50 -23 59 -30 8 -7 24
-19 34 -26 19 -14 9 -44 -141 -397 -8 -19 -19 -45 -24 -57 -5 -13 -13 -33 -18
-45 -6 -13 -49 -117 -96 -233 -48 -115 -96 -230 -107 -255 -10 -25 -23 -54
-27 -65 -57 -137 -178 -404 -270 -597 -27 -59 -53 -118 -57 -132 -8 -32 -20
-34 -21 -3 0 24 -12 145 -19 192 -5 36 -5 277 1 320 2 17 6 71 10 120 19 241
23 261 62 323 46 71 70 126 160 361 72 191 149 363 165 369 4 2 8 8 8 14 0 20
73 100 116 127 51 33 107 38 165 14z m-685 -743 c9 -9 6 -25 -8 -63 -11 -29
-21 -53 -22 -54 -1 -1 -2 42 -3 95 -1 84 1 93 11 65 6 -18 16 -37 22 -43z
m-3019 -572 c-3 -8 -6 -5 -6 6 -1 11 2 17 5 13 3 -3 4 -12 1 -19z m3243 -329
c-7 -11 -18 -43 -27 -71 -17 -57 -99 -238 -108 -238 -3 0 -4 3 -2 8 3 4 21 50
42 102 20 52 45 113 55 135 9 22 21 50 24 63 4 12 12 22 17 22 6 0 5 -8 -1
-21z m-93 -781 c-3 -8 -6 -5 -6 6 -1 11 2 17 5 13 3 -3 4 -12 1 -19z"/>
</g>
</svg>
